HIERARCHY
ROOT SpineBase
{
  OFFSET 0.000000 0.000000 0.000000
  CHANNELS 6 Xposition Yposition Zposition Zrotation Xrotation Yrotation
  JOINT SpineMid
  {
    OFFSET 0.000000 19.571262 0.000000
    CHANNELS 3 Zrotation Xrotation Yrotation
    JOINT SpineShoulder
    {
      OFFSET 0.013428 14.949861 -0.636757
      CHANNELS 3 Zrotation Xrotation Yrotation
      JOINT Neck
      {
        OFFSET -0.004738 5.158005 -0.451507
        CHANNELS 3 Zrotation Xrotation Yrotation
        JOINT Head
        {
          OFFSET -1.259237 -5.600648 -2.455731
          CHANNELS 3 Zrotation Xrotation Yrotation
          End Site
          {
            OFFSET 0 0 0
          }
        }
      }
      JOINT ShoulderLeft
      {
        OFFSET -2.722458 6.041344 -1.089408
        CHANNELS 3 Zrotation Xrotation Yrotation
        JOINT ElbowLeft
        {
          OFFSET 1.858700 -17.102688 -5.236221
          CHANNELS 3 Zrotation Xrotation Yrotation
          JOINT WristLeft
          {
            OFFSET -2.591991 -18.319589 -2.610439
            CHANNELS 3 Zrotation Xrotation Yrotation
            JOINT HandLeft
            {
              OFFSET -0.794689 -4.764506 0.431513
              CHANNELS 3 Zrotation Xrotation Yrotation
              JOINT HandTipLeft
              {
                OFFSET -0.236271 -1.092655 -1.832549
                CHANNELS 3 Zrotation Xrotation Yrotation
                End Site
                {
                  OFFSET 0 0 0
                }
              }
              JOINT ThumbLeft
              {
                OFFSET -0.432045 -0.101998 -2.732300
                CHANNELS 3 Zrotation Xrotation Yrotation
                End Site
                {
                  OFFSET 0 0 0
                }
              }
            }
          }
        }
      }
      JOINT ShoulderRight
      {
        OFFSET -5.712814 -10.866860 -9.151716
        CHANNELS 3 Zrotation Xrotation Yrotation
        JOINT ElbowRight
        {
          OFFSET 1.790272 1.892399 1.201406
          CHANNELS 3 Zrotation Xrotation Yrotation
          JOINT WristRight
          {
            OFFSET 2.601482 14.103276 0.386217
            CHANNELS 3 Zrotation Xrotation Yrotation
            JOINT HandRight
            {
              OFFSET 0.504154 3.070158 -1.491724
              CHANNELS 3 Zrotation Xrotation Yrotation
              JOINT HandTipRight
              {
                OFFSET -0.162923 3.261441 0.214098
                CHANNELS 3 Zrotation Xrotation Yrotation
                End Site
                {
                  OFFSET 0 0 0
                }
              }
              JOINT ThumbRight
              {
                OFFSET -3.152593 0.040846 -1.750799
                CHANNELS 3 Zrotation Xrotation Yrotation
                End Site
                {
                  OFFSET 0 0 0
                }
              }
            }
          }
        }
      }
    }
  }
  JOINT HipLeft
  {
    OFFSET -1.095232 1.035855 -3.159177
    CHANNELS 3 Zrotation Xrotation Yrotation
    JOINT KneeLeft
    {
      OFFSET -7.781588 -13.949452 12.121821
      CHANNELS 3 Zrotation Xrotation Yrotation
      JOINT AnkleLeft
      {
        OFFSET -1.831059 -27.791158 4.613150
        CHANNELS 3 Zrotation Xrotation Yrotation
        JOINT FootLeft
        {
          OFFSET -7.485915 -2.350065 0.256480
          CHANNELS 3 Zrotation Xrotation Yrotation
          End Site
          {
            OFFSET 0 0 0
          }
        }
      }
    }
  }
  JOINT HipRight
  {
    OFFSET -1.347166 -1.276020 -2.419635
    CHANNELS 3 Zrotation Xrotation Yrotation
    JOINT KneeRight
    {
      OFFSET -3.209545 -16.902462 4.682627
      CHANNELS 3 Zrotation Xrotation Yrotation
      JOINT AnkleRight
      {
        OFFSET 3.140361 -20.375047 -2.291627
        CHANNELS 3 Zrotation Xrotation Yrotation
        JOINT FootRight
        {
          OFFSET -2.301307 8.629520 -1.650628
          CHANNELS 3 Zrotation Xrotation Yrotation
          End Site
          {
            OFFSET 0 0 0
          }
        }
      }
    }
  }
}
MOTION
Frames: 6
Frame Time: 0.033333
182.218253 101.594273 339.552437 -2.913822 -4.878148 52.551334 1.432978 -0.145805 -52.767271 1.008968 0.665233 -0.032661 -10.166881 -2.653990 6.290847 0.000000 0.000000 0.000000 -15.658588 11.717304 8.161193 41.156711 -34.387528 5.609419 10.426319 14.143726 -1.718215 -31.224042 -62.182521 -46.298896 0.000000 0.000000 0.000000 0.000000 0.000000 0.000000 -159.067947 50.877119 84.416794 128.190908 -0.613782 86.032310 -21.811942 12.920460 -3.968564 3.274417 -23.448100 4.266865 0.000000 0.000000 0.000000 0.000000 0.000000 0.000000 23.099458 5.607974 -58.208789 1.836995 -22.866270 7.619238 11.657086 12.665057 -43.808406 0.000000 0.000000 0.000000 5.566178 -5.107117 -50.782244 -1.346571 -25.361983 -6.308060 94.464277 -42.980424 23.070824 0.000000 0.000000 0.000000
193.173399 92.201984 361.362195 -3.662819 -3.128285 34.062255 7.065750 35.261733 -35.741621 19.475847 -31.426071 5.697871 -110.534862 37.180417 72.947729 0.000000 0.000000 0.000000 -38.642261 34.368931 27.542257 66.854843 -56.688177 25.489655 6.568814 14.698516 -1.157047 -53.183057 -77.901879 -80.583359 0.000000 0.000000 0.000000 0.000000 0.000000 0.000000 164.571157 74.049437 128.610623 112.141854 2.250059 102.904020 -24.389084 15.797608 -0.449017 -9.988242 -20.306135 -0.779915 0.000000 0.000000 0.000000 0.000000 0.000000 0.000000 23.945282 11.846810 -40.481454 2.864957 -27.346430 9.200943 4.426738 16.953306 -49.283376 0.000000 0.000000 0.000000 30.753978 52.132424 -64.653743 79.695805 -60.711464 61.951393 93.810004 -47.686314 26.472657 0.000000 0.000000 0.000000
187.114739 86.799929 351.671765 9.506567 -26.862287 34.334547 1.381621 -5.763970 -32.089555 -1.387486 5.796666 0.199858 114.177340 -45.518492 -145.984616 0.000000 0.000000 0.000000 -129.242531 35.983833 112.359139 161.291665 -52.399932 112.348185 7.929203 22.179891 -4.810863 -162.458110 -79.023861 179.911996 0.000000 0.000000 0.000000 0.000000 0.000000 0.000000 60.515147 78.977896 -119.190887 73.228916 -20.678727 89.600560 -24.753783 15.532859 0.776713 -8.236441 -24.345372 -2.117569 0.000000 0.000000 0.000000 0.000000 0.000000 0.000000 32.391626 35.022790 -48.222059 2.271935 -27.859989 7.396615 -2.235422 20.785098 -51.932932 0.000000 0.000000 0.000000 19.901620 47.760568 -47.398436 17.789981 -49.361432 8.419154 94.444877 -51.563739 29.997636 0.000000 0.000000 0.000000
177.385854 76.705646 337.299828 -9.305283 7.543517 5.616049 9.057333 -19.333110 -4.203963 -6.878780 19.264852 1.065077 165.688304 15.920378 170.760412 0.000000 0.000000 0.000000 -131.445271 30.738276 118.086236 -170.861418 -10.602957 138.688243 7.736513 28.253923 -7.625280 -163.885863 -74.104973 171.850102 0.000000 0.000000 0.000000 0.000000 0.000000 0.000000 12.731345 27.132909 -34.105942 46.954095 -27.201485 57.015073 -27.575973 21.668930 -0.552443 -1.574439 -33.319114 0.126980 0.000000 0.000000 0.000000 0.000000 0.000000 0.000000 23.611109 8.833055 -2.181222 1.325993 -27.872591 4.937723 -9.366043 24.415567 -51.641037 0.000000 0.000000 0.000000 37.341350 -38.497401 20.607732 -62.925487 57.003469 32.006194 173.233445 -23.623911 99.516136 0.000000 0.000000 0.000000
159.990084 72.894396 306.498524 3.201774 -15.374493 93.763274 -41.134362 -18.099510 -101.044869 -22.351638 38.875927 7.393812 173.829179 -32.301734 100.762333 0.000000 0.000000 0.000000 171.226788 -5.680721 -143.277695 140.703244 4.280284 -142.632482 11.237765 26.216312 -8.719360 -129.975210 -80.716286 -143.544112 0.000000 0.000000 0.000000 0.000000 0.000000 0.000000 0.192042 40.481976 -28.976482 30.940558 -24.782017 39.497651 -25.594737 21.512855 -2.926823 5.674905 -39.561563 3.837981 0.000000 0.000000 0.000000 0.000000 0.000000 0.000000 28.614583 -13.991230 -85.260877 -0.506586 -24.731774 0.120744 -22.600626 30.755884 -49.241131 0.000000 0.000000 0.000000 -27.227485 -25.243457 -86.482827 -22.060875 4.642306 -14.699606 73.452773 -53.563457 17.130097 0.000000 0.000000 0.000000
126.766465 75.629817 244.097786 -68.545848 60.925115 35.507122 5.948627 -3.782574 8.846288 -4.986403 10.201706 -1.843051 -125.411106 43.834346 53.933545 0.000000 0.000000 0.000000 -138.536378 24.065972 77.140751 -78.976203 44.620737 76.609083 7.035336 19.622000 -3.636578 -43.928389 -61.083517 -50.714755 0.000000 0.000000 0.000000 0.000000 0.000000 0.000000 51.564835 -40.246018 10.670599 11.206021 -13.921768 24.228144 -10.343429 18.240469 -5.420165 20.449627 -61.754304 16.566371 0.000000 0.000000 0.000000 0.000000 0.000000 0.000000 80.187601 -33.485886 67.888216 -4.805614 -18.861986 -7.789486 -66.334138 35.147525 -23.550868 0.000000 0.000000 0.000000 140.335114 -28.731215 115.003243 -18.225629 -14.326326 -21.727187 46.002444 -38.164099 -2.163928 0.000000 0.000000 0.000000
